Coordinates
version=1
nRows=7
nColumns=46
inDegrees=yes

Units are S.I. units (second, meters, Newtons, ...)
Angles are in degrees.

endheader
time	pelvis_tilt	pelvis_list	pelvis_rotation	pelvis_tx	pelvis_ty	pelvis_tz	bb_angle	bb_tx	bb_ty	bb_tz	hip_flexion_r	hip_adduction_r	hip_rotation_r	knee_angle_r	knee_angle_r_beta	ankle_angle_r	subtalar_angle_r	mtp_angle_r	crank_angle_r	hip_flexion_l	hip_adduction_l	hip_rotation_l	knee_angle_l	knee_angle_l_beta	ankle_angle_l	subtalar_angle_l	mtp_angle_l	crank_angle_l	lumbar_extension	lumbar_bending	lumbar_rotation	arm_flex_r	arm_add_r	arm_rot_r	elbow_flex_r	pro_sup_r	wrist_flex_r	wrist_dev_r	arm_flex_l	arm_add_l	arm_rot_l	elbow_flex_l	pro_sup_l	wrist_flex_l	wrist_dev_l
      7.50500000	    -23.46576144	    -14.07434306	     -4.09695676	      0.39546274	      1.07781798	     -0.23345483	      0.00000000	      0.50000000	      0.00000000	      0.25000000	     62.34122277	      9.52801261	     -3.20150102	    107.96584214	      1.88435943	     11.13245325	      0.90451673	      0.00000000	      0.00000000	     36.97240723	    -19.74722670	      2.64640142	     28.92008538	      0.50475071	    -13.97928161	     -6.06990256	      0.00000000	      0.00000000	    -43.18286657	      7.92578160	      6.13491057	     62.72733324	      4.30833622	     22.10156273	     23.13018332	     46.07826358	      0.00000000	      0.00000000	     47.54888451	    -17.53701954	     17.33119256	     53.87003999	     47.36327758	      0.00000000	      0.00000000
      7.51000000	    -23.73160641	    -14.26535152	     -5.03621174	      0.39478971	      1.07751159	     -0.23490682	      0.00000000	      0.50000000	      0.00000000	      0.25000000	     64.02616064	      9.70623052	     -3.24116243	    108.97582595	      1.90198697	     11.60560672	      1.43078404	      0.00000000	      0.00000000	     35.77193165	    -20.36260727	      1.69088888	     27.71128862	      0.48365323	    -15.04268808	     -5.77861162	      0.00000000	      0.00000000	    -43.11777331	      8.43088706	      6.65769723	     62.99008371	      4.43557347	     22.10761315	     23.57310486	     46.13837336	      0.00000000	      0.00000000	     47.16613466	    -17.58780911	     16.93226397	     53.51330421	     47.27225522	      0.00000000	      0.00000000
      7.51500000	    -23.80668948	    -14.08552969	     -6.12946370	      0.39442761	      1.07755801	     -0.23602147	      0.00000000	      0.50000000	      0.00000000	      0.25000000	     65.49081502	      9.90397949	     -2.73932842	    109.92963246	      1.91863403	     12.25761983	      2.54613255	      0.00000000	      0.00000000	     34.21690735	    -20.75482700	      0.08011034	     26.56877841	      0.46371266	    -16.26698516	     -5.65986092	      0.00000000	      0.00000000	    -43.14430701	      8.28816473	      7.22193774	     62.05887840	      4.02627237	     21.76548392	     25.93127503	     46.41898803	      0.00000000	      0.00000000	     46.82233695	    -16.12918904	     13.50570590	     52.65642448	     46.86470347	      0.00000000	      0.00000000
      7.52000000	    -24.00987271	    -14.11652473	     -7.07261237	      0.39381833	      1.07717741	     -0.23721246	      0.00000000	      0.50000000	      0.00000000	      0.25000000	     67.10486338	     10.05887162	     -2.63771669	    110.68362319	      1.93179365	     12.58524744	      3.12209631	      0.00000000	      0.00000000	     33.04685363	    -21.26381313	     -1.17013310	     25.76639386	      0.44970841	    -17.06997887	     -5.08478355	      0.00000000	      0.00000000	    -43.06543472	      8.58674576	      7.60534690	     62.18820722	      4.26890122	     21.84133175	     26.19053811	     46.46650467	      0.00000000	      0.00000000	     46.31339803	    -16.27553177	     13.28365109	     52.32869540	     46.80681261	      0.00000000	      0.00000000
      7.52500000	    -24.17968253	    -14.05078974	     -7.91457598	      0.39307632	      1.07683912	     -0.23851516	      0.00000000	      0.50000000	      0.00000000	      0.25000000	     68.66445794	     10.09564851	     -2.54425237	    111.34342560	      1.94330938	     12.90473511	      3.69990908	      0.00000000	      0.00000000	     31.88652939	    -21.58125154	     -2.22556674	     25.09478588	      0.43798664	    -17.51270156	     -4.46414402	      0.00000000	      0.00000000	    -43.01583553	      8.83049006	      7.89094899	     62.50124216	      4.50208959	     21.94079203	     26.46108839	     46.51702326	      0.00000000	      0.00000000	     45.88409958	    -16.31812517	     12.99856526	     52.04986214	     46.74604973	      0.00000000	      0.00000000
      7.53000000	    -24.26551785	    -13.76607185	     -8.94331429	      0.39283518	      1.07663159	     -0.23936758	      0.00000000	      0.50000000	      0.00000000	      0.25000000	     70.09627465	     10.30574841	     -2.11562082	    111.87882030	      1.95265378	     13.31197523	      4.57875807	      0.00000000	      0.00000000	     30.51409302	    -21.83379031	     -3.81882767	     24.54119423	      0.42832464	    -17.68056745	     -3.37253009	      0.00000000	      0.00000000	    -42.97742812	      8.55562936	      7.96092295	     62.43258733	      4.79767122	     22.15756374	     26.60537853	     46.57222901	      0.00000000	      0.00000000	     45.37703769	    -16.39677491	     12.33340510	     51.82068338	     46.66370710	      0.00000000	      0.00000000
      7.53500000	    -24.33513192	    -13.46673725	     -9.91814400	      0.39249747	      1.07630697	     -0.24025179	      0.00000000	      0.50000000	      0.00000000	      0.25000000	     71.47078068	     10.47334814	     -1.78155778	    112.26979064	      1.95947750	     13.66785516	      5.22704743	      0.00000000	      0.00000000	     29.23255876	    -21.99980670	     -5.11771402	     24.22970001	      0.42288804	    -17.35782546	     -2.25264826	      0.00000000	      0.00000000	    -42.98750676	      8.45025914	      8.08026441	     62.70850134	      5.15014882	     22.47984679	     26.65183592	     46.61959611	      0.00000000	      0.00000000	     44.74173250	    -16.33721796	     11.44129812	     51.77963974	     46.60060943	      0.00000000	      0.00000000
